<svg xmlns="http://www.w3.org/2000/svg" width="112" height="63" viewBox="0 0 112 63"><rect width="100%" height="100%" fill="#DDDDDD"/><path fill="#999999" d="M28.725 36.075h2.21v1.57h-6.8v-1.57h2.49v-7.17q0-.42.02-.87l-1.77 1.48q-.15.11-.3.14-.15.03-.28.01-.13-.03-.23-.09t-.15-.14l-.67-.91 3.75-3.19h1.73v10.74Zm9.86 0h2.21v1.57h-6.8v-1.57h2.49v-7.17q0-.42.02-.87l-1.77 1.48q-.15.11-.3.14-.15.03-.28.01-.13-.03-.23-.09t-.15-.14l-.67-.91 3.75-3.19h1.73v10.74Zm8.45-.39h3.16q.34 0 .54.2.2.19.2.5v1.26h-8.44v-.7q0-.21.09-.44.09-.24.29-.42l3.73-3.74q.47-.48.84-.91.37-.44.61-.86.25-.43.38-.86.13-.44.13-.93 0-.44-.12-.77-.13-.34-.36-.57-.24-.23-.57-.34-.32-.12-.73-.12-.38 0-.69.11-.32.1-.57.29-.25.2-.42.45-.17.26-.25.56-.15.39-.37.52-.23.13-.67.06l-1.1-.2q.12-.88.49-1.55.37-.66.91-1.11.55-.45 1.26-.67.71-.23 1.53-.23.85 0 1.55.25.71.25 1.21.71.5.46.78 1.11.28.64.28 1.43 0 .68-.2 1.26t-.53 1.11q-.34.52-.79 1.02-.45.49-.94 1l-2.77 2.83q.4-.12.79-.18.4-.07.75-.07Zm17.75-.85-1.11 1.09-2.88-2.88-2.91 2.9-1.11-1.1 2.9-2.91-2.77-2.77 1.11-1.11 2.77 2.77 2.75-2.75 1.12 1.1-2.76 2.77 2.89 2.89Zm13.13-9.48-3.64 4.46-.43.53q.36-.18.77-.28.41-.1.89-.1.7 0 1.36.23.65.23 1.16.7.5.46.8 1.15.31.69.31 1.6 0 .86-.31 1.62-.32.75-.89 1.31-.57.56-1.37.88-.8.33-1.77.33-.99 0-1.77-.32-.78-.31-1.34-.88-.55-.56-.84-1.36-.3-.79-.3-1.76 0-.87.36-1.78.35-.92 1.09-1.9l2.93-3.94q.16-.2.45-.35.29-.14.67-.14h1.87Zm-3.17 10.71q.51 0 .93-.17.42-.17.72-.48.3-.3.47-.72.17-.41.17-.89 0-.53-.16-.95-.16-.42-.46-.71-.3-.3-.71-.45-.42-.15-.92-.15t-.91.17q-.41.17-.7.47-.29.3-.45.71-.16.42-.16.89 0 .51.14.93.14.42.42.72.27.3.68.46.41.17.94.17Zm6.97-7.09-1.1-.2q.13-.88.49-1.55.37-.66.92-1.11.54-.45 1.25-.67.71-.23 1.53-.23.85 0 1.53.25.69.24 1.17.67.49.43.75 1 .26.58.26 1.25 0 .59-.14 1.04-.13.44-.37.77-.25.34-.62.56-.36.23-.82.39 1.1.35 1.65 1.06.54.71.54 1.79 0 .92-.34 1.63-.34.7-.92 1.18-.57.48-1.33.73-.77.25-1.62.25-.92 0-1.61-.22-.69-.21-1.2-.63-.51-.41-.87-1.02-.35-.6-.61-1.39l.93-.38q.36-.16.68-.08.32.07.47.34.15.3.33.59.18.29.44.51.25.23.6.37.34.14.82.14.53 0 .93-.18.4-.17.67-.45t.4-.63q.13-.34.13-.69 0-.44-.09-.8-.09-.36-.39-.62-.3-.25-.86-.4-.55-.14-1.49-.14v-1.5q.78-.01 1.29-.14.51-.14.81-.38.3-.24.42-.58.12-.34.12-.75 0-.87-.49-1.32-.48-.45-1.29-.45-.37 0-.69.11-.31.1-.56.29-.25.2-.42.45-.17.26-.26.56-.14.39-.38.52-.23.13-.66.06Z"/></svg>