<?xml version="1.0" encoding="UTF-8"?>
<svg id="Layer_1" xmlns="http://www.w3.org/2000/svg" viewBox="0 0 224.5 61.23">
  <defs>
    <style>
      .cls-1 {
        fill: #c72127;
      }

      .cls-2 {
        fill: #fff;
        opacity: 0;
      }
    </style>
  </defs>
  <rect class="cls-2" width="224.5" height="61.23"/>
  <g>
    <g>
      <g>
        <path class="cls-1" d="M122.48,20.41v-7.64h5.14v1.55h-3.36v1.45h3.18v1.48h-3.18v1.59h3.55v1.58h-5.34Z"/>
        <path class="cls-1" d="M129.31,20.41v-7.64h1.86v7.64h-1.86Z"/>
        <path class="cls-1" d="M137.8,20.41l-3.08-4.99h-.03l.04,4.99h-1.79v-7.64h2.11l3.07,4.98h.03l-.04-4.98h1.79v7.64h-2.1Z"/>
        <path class="cls-1" d="M148.81,16.57c0,.67-.12,1.25-.37,1.73-.25.49-.58.88-.98,1.2s-.87.54-1.38.69c-.51.15-1.03.22-1.56.22h-2.85v-7.64h2.76c.54,0,1.07.06,1.6.19.53.13.99.33,1.4.63.41.29.74.68.99,1.17.25.49.38,1.09.38,1.81ZM146.89,16.57c0-.43-.07-.79-.21-1.07-.14-.28-.33-.51-.56-.68-.23-.17-.5-.29-.8-.36-.3-.07-.61-.11-.92-.11h-.92v4.47h.87c.33,0,.65-.04.96-.11.31-.08.58-.2.81-.37.23-.17.42-.4.56-.69.14-.29.21-.64.21-1.07Z"/>
        <path class="cls-1" d="M155.02,20.41v-3.19h-2.98v3.19h-1.85v-7.64h1.85v2.89h2.98v-2.89h1.85v7.64h-1.85Z"/>
        <path class="cls-1" d="M166.61,16.56c0,.6-.1,1.16-.31,1.66-.21.5-.5.93-.87,1.28-.37.36-.81.63-1.32.83-.51.19-1.07.29-1.66.29s-1.15-.1-1.66-.29c-.51-.19-.95-.47-1.32-.83-.37-.36-.66-.78-.87-1.28-.21-.5-.31-1.05-.31-1.66s.1-1.16.31-1.66c.21-.49.5-.91.87-1.26.37-.35.81-.61,1.32-.8.51-.19,1.06-.28,1.66-.28s1.15.09,1.66.28c.51.19.95.45,1.32.8.37.35.66.76.87,1.26.21.49.31,1.04.31,1.66ZM164.63,16.56c0-.33-.05-.64-.16-.93-.11-.29-.26-.53-.45-.74-.19-.2-.42-.37-.69-.49s-.57-.18-.89-.18-.62.06-.89.18c-.27.12-.5.28-.69.49s-.34.45-.45.74c-.1.29-.16.6-.16.93s.05.66.16.95c.11.29.26.54.45.75.19.21.42.37.69.49.27.12.56.18.89.18s.62-.06.89-.18c.27-.12.5-.28.69-.49.19-.21.35-.46.45-.75.11-.29.16-.61.16-.95Z"/>
        <path class="cls-1" d="M171.53,20.41h-1.85l-2.89-7.64h2.07l1.77,5.42h.04l1.76-5.42h2.04l-2.95,7.64Z"/>
        <path class="cls-1" d="M175.36,20.41v-7.64h5.14v1.55h-3.36v1.45h3.18v1.48h-3.18v1.59h3.55v1.58h-5.34Z"/>
        <path class="cls-1" d="M187.04,20.41l-3.08-4.99h-.03l.04,4.99h-1.79v-7.64h2.11l3.07,4.98h.03l-.04-4.98h1.79v7.64h-2.1Z"/>
      </g>
      <g>
        <path class="cls-1" d="M126.48,39.86v6.06h-1.85v-6.06h-2.16v-1.58h6.17v1.58h-2.16Z"/>
        <path class="cls-1" d="M129.64,45.92v-7.64h5.14v1.55h-3.36v1.45h3.18v1.48h-3.18v1.59h3.55v1.58h-5.34Z"/>
        <path class="cls-1" d="M141.8,45.79c-.5.23-1.07.34-1.72.34-.59,0-1.14-.1-1.64-.29-.5-.19-.93-.47-1.3-.83-.37-.36-.66-.78-.86-1.28-.21-.5-.31-1.04-.31-1.64s.11-1.16.32-1.66c.21-.5.51-.92.88-1.27.37-.35.81-.62,1.32-.8.5-.19,1.05-.28,1.63-.28.54,0,1.07.1,1.59.29.52.19.95.47,1.27.84l-1.25,1.25c-.17-.24-.4-.41-.68-.53-.28-.11-.57-.17-.86-.17-.32,0-.62.06-.89.18-.27.12-.5.28-.7.49-.19.21-.35.46-.45.74-.11.28-.16.6-.16.93s.05.66.16.95c.11.29.26.53.45.74.19.21.42.37.69.48.27.12.56.17.87.17.37,0,.69-.07.96-.22.27-.14.49-.33.66-.56l1.29,1.21c-.34.39-.76.7-1.25.92Z"/>
        <path class="cls-1" d="M148.85,45.92v-3.19h-2.98v3.19h-1.85v-7.64h1.85v2.89h2.98v-2.89h1.85v7.64h-1.85Z"/>
        <path class="cls-1" d="M157.34,45.92l-3.08-4.99h-.03l.04,4.99h-1.79v-7.64h2.11l3.07,4.98h.03l-.04-4.98h1.79v7.64h-2.1Z"/>
        <path class="cls-1" d="M169.17,42.07c0,.6-.1,1.16-.31,1.66-.21.5-.5.93-.87,1.28-.37.36-.81.63-1.32.83-.51.19-1.07.29-1.66.29s-1.15-.1-1.66-.29c-.51-.19-.95-.47-1.32-.83-.37-.36-.66-.78-.87-1.28-.21-.5-.31-1.05-.31-1.66s.1-1.16.31-1.66c.21-.49.5-.91.87-1.26.37-.35.81-.61,1.32-.8.51-.19,1.06-.28,1.66-.28s1.15.09,1.66.28c.51.19.95.45,1.32.8.37.35.66.76.87,1.26.21.49.31,1.04.31,1.66ZM167.19,42.07c0-.33-.05-.64-.16-.93-.11-.29-.26-.53-.45-.74-.19-.2-.42-.37-.69-.49s-.57-.18-.89-.18-.62.06-.89.18c-.27.12-.5.28-.69.49s-.34.45-.45.74c-.1.29-.16.6-.16.93s.05.66.16.95c.11.29.26.54.45.75.19.21.42.37.69.49.27.12.56.18.89.18s.62-.06.89-.18c.27-.12.5-.28.69-.49.19-.21.35-.46.45-.75.11-.29.16-.61.16-.95Z"/>
        <path class="cls-1" d="M170.55,45.92v-7.64h1.86v6.03h2.96v1.61h-4.82Z"/>
        <path class="cls-1" d="M184.25,42.07c0,.6-.1,1.16-.31,1.66-.21.5-.5.93-.87,1.28-.37.36-.81.63-1.32.83-.51.19-1.07.29-1.66.29s-1.15-.1-1.66-.29c-.51-.19-.95-.47-1.32-.83-.37-.36-.66-.78-.87-1.28-.21-.5-.31-1.05-.31-1.66s.1-1.16.31-1.66c.21-.49.5-.91.87-1.26.37-.35.81-.61,1.32-.8.51-.19,1.06-.28,1.66-.28s1.15.09,1.66.28c.51.19.95.45,1.32.8.37.35.66.76.87,1.26.21.49.31,1.04.31,1.66ZM182.27,42.07c0-.33-.05-.64-.16-.93-.11-.29-.26-.53-.45-.74-.19-.2-.42-.37-.69-.49s-.57-.18-.89-.18-.62.06-.89.18c-.27.12-.5.28-.69.49s-.34.45-.45.74c-.1.29-.16.6-.16.93s.05.66.16.95c.11.29.26.54.45.75.19.21.42.37.69.49.27.12.56.18.89.18s.62-.06.89-.18c.27-.12.5-.28.69-.49.19-.21.35-.46.45-.75.11-.29.16-.61.16-.95Z"/>
        <path class="cls-1" d="M191.09,45.93c-.5.12-1.05.18-1.64.18s-1.18-.1-1.69-.29c-.51-.19-.96-.47-1.33-.82-.37-.35-.66-.77-.87-1.27-.21-.49-.31-1.04-.31-1.65s.11-1.16.32-1.66c.21-.5.51-.92.88-1.27.37-.35.81-.62,1.32-.8.5-.19,1.05-.28,1.63-.28s1.17.09,1.68.28c.52.18.94.43,1.26.74l-1.17,1.33c-.18-.21-.42-.38-.71-.51-.3-.13-.63-.2-1-.2-.32,0-.62.06-.9.18-.27.12-.51.28-.71.5-.2.21-.36.46-.47.75-.11.29-.17.61-.17.95s.05.68.15.97c.1.3.25.55.45.76.2.21.44.38.73.5s.62.18,1,.18c.22,0,.42-.02.62-.05.19-.03.37-.08.54-.16v-1.39h-1.46v-1.49h3.15v4.04c-.37.19-.81.35-1.31.47Z"/>
        <path class="cls-1" d="M197.71,42.69v3.24h-1.85v-3.24l-2.87-4.4h2.24l1.63,2.83,1.63-2.83h2.16l-2.94,4.4Z"/>
      </g>
      <g>
        <path class="cls-1" d="M128.8,31.54c-.15.38-.38.7-.66.97s-.64.48-1.04.63c-.41.15-.86.23-1.36.23s-.96-.08-1.36-.23-.75-.36-1.03-.63-.5-.59-.65-.97c-.15-.38-.23-.8-.23-1.26v-4.76h1.84v4.61c0,.21.03.41.08.59.05.19.14.35.25.5.11.15.26.26.44.35.18.09.41.13.66.13s.48-.04.66-.13c.18-.09.33-.2.45-.35s.2-.31.25-.5c.05-.19.08-.38.08-.59v-4.61h1.85v4.76c0,.46-.08.88-.23,1.26Z"/>
        <path class="cls-1" d="M135.61,33.17l-3.08-4.99h-.03l.04,4.99h-1.79v-7.64h2.11l3.07,4.98h.03l-.04-4.98h1.79v7.64h-2.1Z"/>
        <path class="cls-1" d="M139.48,33.17v-7.64h1.86v7.64h-1.86Z"/>
        <path class="cls-1" d="M146.96,33.17h-1.85l-2.89-7.64h2.07l1.77,5.42h.04l1.76-5.42h2.04l-2.95,7.64Z"/>
        <path class="cls-1" d="M150.79,33.17v-7.64h5.14v1.55h-3.36v1.45h3.18v1.48h-3.18v1.59h3.55v1.58h-5.34Z"/>
        <path class="cls-1" d="M161.7,33.17l-1.66-3.03h-.63v3.03h-1.8v-7.64h2.92c.37,0,.73.04,1.07.11.35.08.66.2.94.38.28.18.5.42.66.71s.25.66.25,1.1c0,.52-.14.95-.42,1.31-.28.35-.67.6-1.17.76l2,3.27h-2.16ZM161.63,27.87c0-.18-.04-.33-.11-.44-.08-.11-.17-.2-.29-.26-.12-.06-.25-.1-.4-.12-.15-.02-.29-.03-.43-.03h-.99v1.78h.88c.15,0,.31-.01.47-.04.16-.03.3-.07.43-.14.13-.06.24-.16.32-.28s.12-.28.12-.47Z"/>
        <path class="cls-1" d="M169.03,27.51c-.16-.2-.37-.36-.62-.48-.26-.12-.5-.18-.74-.18-.12,0-.25.01-.37.03s-.24.06-.34.12c-.1.06-.19.14-.25.24-.07.1-.1.22-.1.37,0,.13.03.24.08.32.05.09.13.16.24.23s.23.12.37.18c.14.05.31.11.49.17.26.09.53.18.81.29.28.1.54.24.77.42.23.17.42.39.57.64.15.26.23.57.23.95,0,.44-.08.82-.24,1.14-.16.32-.38.58-.65.79-.27.21-.59.36-.94.46-.35.1-.72.15-1.09.15-.55,0-1.08-.1-1.59-.29-.51-.19-.94-.46-1.27-.81l1.21-1.23c.19.23.43.42.74.58.31.15.61.23.91.23.14,0,.27-.01.4-.04.13-.03.24-.08.34-.14.1-.06.17-.15.23-.26.06-.11.09-.24.09-.39s-.04-.27-.11-.37-.17-.19-.31-.28c-.13-.08-.3-.16-.5-.23-.2-.07-.42-.14-.68-.22-.24-.08-.48-.17-.72-.28-.23-.11-.44-.25-.63-.42-.18-.17-.33-.37-.44-.61-.11-.24-.17-.53-.17-.88,0-.42.09-.79.26-1.09s.4-.55.68-.74.6-.34.95-.43c.35-.09.71-.14,1.07-.14.43,0,.87.08,1.32.24.45.16.84.39,1.18.7l-1.18,1.24Z"/>
        <path class="cls-1" d="M171.56,33.17v-7.64h1.86v7.64h-1.86Z"/>
        <path class="cls-1" d="M178.41,27.1v6.06h-1.85v-6.06h-2.16v-1.58h6.17v1.58h-2.16Z"/>
        <path class="cls-1" d="M185.8,29.93v3.24h-1.85v-3.24l-2.87-4.4h2.24l1.63,2.83,1.63-2.83h2.16l-2.94,4.4Z"/>
        <path class="cls-1" d="M200.41,29.31c0,.6-.1,1.16-.31,1.66-.21.5-.5.93-.87,1.28-.37.36-.81.63-1.32.83-.51.19-1.07.29-1.66.29s-1.15-.1-1.66-.29c-.51-.19-.95-.47-1.32-.83-.37-.36-.66-.78-.87-1.28-.21-.5-.31-1.05-.31-1.66s.1-1.16.31-1.66c.21-.49.5-.91.87-1.26.37-.35.81-.61,1.32-.8.51-.19,1.06-.28,1.66-.28s1.15.09,1.66.28c.51.19.95.45,1.32.8.37.35.66.76.87,1.26.21.49.31,1.04.31,1.66ZM198.43,29.31c0-.33-.05-.64-.16-.93-.11-.29-.26-.53-.45-.74-.19-.2-.42-.37-.69-.49s-.57-.18-.89-.18-.62.06-.89.18c-.27.12-.5.28-.69.49s-.34.45-.45.74c-.1.29-.16.6-.16.93s.05.66.16.95c.11.29.26.54.45.75.19.21.42.37.69.49.27.12.56.18.89.18s.62-.06.89-.18c.27-.12.5-.28.69-.49.19-.21.35-.46.45-.75.11-.29.16-.61.16-.95Z"/>
        <path class="cls-1" d="M203.62,27.1v1.57h2.96v1.52h-2.96v2.97h-1.83v-7.64h5.03v1.58h-3.21Z"/>
      </g>
    </g>
    <g>
      <g>
        <path class="cls-1" d="M28.04,19.59v26.32h-8.22v-26.32h-9.61v-6.84h27.45v6.84h-9.61Z"/>
        <path class="cls-1" d="M68.96,38.87c-.69,1.64-1.67,3.04-2.96,4.22-1.28,1.17-2.83,2.08-4.64,2.74-1.81.66-3.82.98-6.03.98s-4.26-.33-6.06-.98c-1.79-.66-3.32-1.57-4.57-2.74-1.25-1.17-2.21-2.58-2.88-4.22-.67-1.64-1.01-3.46-1.01-5.46V12.76h8.17v20c0,.91.12,1.76.36,2.58.24.81.61,1.54,1.11,2.18.5.64,1.15,1.15,1.97,1.52s1.8.56,2.96.56,2.14-.19,2.96-.56,1.48-.88,1.99-1.52c.51-.64.88-1.37,1.11-2.18.22-.81.34-1.67.34-2.58V12.76h8.22v20.66c0,2-.34,3.82-1.03,5.46Z"/>
      </g>
      <polygon class="cls-1" points="75.08 51.02 91.75 10.2 85.79 10.2 69.13 51.02 75.08 51.02"/>
      <path class="cls-1" d="M99.84,21.97c-6.86,0-12.42,5.56-12.42,12.42s5.56,12.42,12.42,12.42c4.4,0,8.9-1.93,11.32-5.39l-5.63-2.3c-1.5,1.66-3.55,2.32-5.69,2.32-3.16,0-5.83-2.08-6.72-4.94h18.96c.12-.68.18-1.39.18-2.11,0-6.86-5.56-12.42-12.42-12.42ZM99.84,27.35c2.94,0,5.46,1.81,6.52,4.37h-13.03c1.05-2.56,3.57-4.37,6.52-4.37Z"/>
    </g>
  </g>
</svg>