<?xml version="1.0" encoding="UTF-8"?>
<svg id="layer" xmlns="http://www.w3.org/2000/svg" version="1.1" viewBox="0 0 263 182">
  <!-- Generator: Adobe Illustrator 29.0.0, SVG Export Plug-In . SVG Version: 2.1.0 Build 186)  -->
  <defs>
    <style>
      .st0 {
        fill: #479abd;
      }

      .st1 {
        fill: #1b1b1b;
      }
    </style>
  </defs>
  <path class="st0" d="M65.7,133h17.9c2,0,3.7-1.7,3.7-3.8v-16.3c0-5.5,5.9-11.6,11.2-11.6h15.6c2.1,0,3.7-1.7,3.7-3.8v-18.5c0-2.1-1.7-3.8-3.7-3.8h-17.9c-2.1,0-3.7,1.7-3.7,3.8v16.3c0,5.5-5.9,11.6-11.2,11.6h-15.6c-2,0-3.7,1.7-3.7,3.8v18.6c0,2,1.7,3.7,3.7,3.7"/>
  <path class="st1" d="M73.8,145c0,.1.3.1.4.1h-.4ZM73.2,71.5c-3.4,0-6.2-2.9-6.2-6.5s2.8-6.4,6.2-6.4h7.8c.8-1.9,1.8-3.6,2.8-5.3,1.7-3,3.7-5.8,5.9-8.4,11.2-13.5,28.1-22.2,46.9-22.2h3.8c4.4,0,8.7.5,12.9,1.4s8.2,2.3,12,4c17.9,8.1,31.3,24.7,35.1,44.6h.9c11.9,0,22.7,4.8,30.5,12.6,7.9,7.8,12.8,18.7,12.8,30.6h0c0,12-4.9,22.8-12.8,30.7-7.8,7.8-18.6,12.6-30.5,12.6h-118.2c-4.3,0-8.4-.6-12.3-1.8-.2-.1-.4-.1-.5-.2l-1.4-.4c0-.1-.2-.1-.3-.1-3.1-1.1-6-2.5-8.7-4.3h-.2l-.3-.2h0l-.3-.2s-.2-.1-.3-.2c-.6-.4-1.2-.8-1.7-1.2-2.8-2.1-3.4-6.1-1.3-9,2-2.9,5.9-3.5,8.7-1.4l1.2.9h.2c0,.1.3.3.3.3l.3.2c1.9,1.2,4,2.3,6.2,3.1,0,0,.2,0,.3.1.4.1.7.2.9.3h.4c2.9,1,5.9,1.4,8.9,1.4h118.1c8.5,0,16.3-3.4,21.9-9,5.6-5.5,9-13.1,9-21.4h0c0-8.3-3.4-15.8-9-21.4s-13.4-9-21.9-9h-6.3c-3.2,0-5.9-2.5-6.2-5.8-1.7-17.8-13-32.8-28.6-39.9-3-1.4-6.2-2.5-9.6-3.2-3.4-.7-6.8-1.1-10.4-1.1h-3.8c-15,0-28.5,6.9-37.4,17.6-1.7,2.1-3.3,4.3-4.7,6.7-1.4,2.4-2.6,4.9-3.6,7.4h0c-.9,2.5-3.2,4.1-5.8,4.1h-11.7M39.7,136.8h17.9c2,0,3.7-1.7,3.7-3.8v-16.3c0-5.5,5.9-11.6,11.2-11.6h15.6c2,0,3.7-1.7,3.7-3.8v-18.9c0-2.1-1.7-3.8-3.7-3.8h-15.6c-5.3,0-11.2-6.2-11.2-11.7v-16.2c0-2.1-1.6-3.8-3.7-3.8h-17.9c-2,0-3.7,1.7-3.7,3.8v18.6c0,2.1,1.7,3.8,3.7,3.8h15.7c5.3,0,11.2,6.1,11.2,11.6v14.3c0,5.5-5.9,11.6-11.2,11.6h-15.7c-2,0-3.7,1.7-3.7,3.8v18.6c0,2.1,1.6,3.8,3.7,3.8M46.2,100.1v-12.5c0-2.4-1.9-4.3-4.1-4.3h-12c-2.3,0-4.1,1.9-4.1,4.3v12.5c0,2.4,1.9,4.3,4.1,4.3h12c2.3,0,4.1-1.9,4.1-4.3M140.9,120.5v-10.8c0-2.1-1.6-3.7-3.6-3.7h-10.5c-2,0-3.6,1.7-3.6,3.7v10.8c0,2,1.6,3.7,3.6,3.7h10.5c2,0,3.6-1.7,3.6-3.7M129,69.1v-10c0-1.9-1.5-3.4-3.3-3.4h-9.6c-1.8,0-3.3,1.6-3.3,3.5v10c0,1.9,1.5,3.4,3.3,3.4h9.6c1.8,0,3.3-1.5,3.3-3.5M150.5,97.9v-10.1c0-1.9-1.5-3.5-3.4-3.5h-9.8c-1.8,0-3.3,1.6-3.3,3.5v10.1c0,1.9,1.5,3.5,3.3,3.5h9.8c1.9,0,3.4-1.6,3.4-3.5M165.8,103.9v-6.6c0-1.3-1-2.3-2.2-2.3h-6.4c-1.2,0-2.2,1-2.2,2.3v6.6c0,1.2,1,2.3,2.2,2.3h6.4c1.2,0,2.1-1.1,2.2-2.3M273.4,136.1v-42.4c0-8,0-13.9-.4-19.2h0c0,0,10.1,0,10.1,0l.5,12h0c2.8-8.2,9.6-13.5,17.2-13.5s2,0,3.1.4h.1v10.7h-.4c-1.1,0-2.2-.2-3.6-.2-7.4,0-13.3,5.5-14.8,14.1-.2,1.6-.4,3.4-.4,5.3v32.9h-11.5M353.2,99c0-2.3-.3-9.3-4.8-13.9-2.6-2.7-6.1-4-10.4-4-11,0-16,9.6-17,17.9h32.2,0ZM340.1,137.3c-18.4,0-30.3-12.2-30.3-31.1s11.9-33.4,29.1-33.4,25.4,15.7,25.4,29.1-.1,4.1-.4,5.4h0c0,0-43,0-43,0,.3,13.2,8.1,21,20.8,21s13.3-1.5,16.9-3h.1c0,0,2.1,8,2.1,8h-.1c-4,1.9-10.8,4-20.6,4M391,137.5c-6.3,0-12.7-1.6-17.3-4.3h-.1l2.8-8.7h.1c3.4,2.1,9.2,4.4,14.8,4.4s11.6-3.4,11.6-9-3-8.1-11.2-11.1c-10.9-4-16.5-9.9-16.5-17.5s9-18.2,21.3-18.2,11.4,1.4,15.1,3.8h.1l-2.8,8.3h-.2c-4.1-2.4-8.3-3.6-12.5-3.6-6.9,0-10,4.1-10,8.2s3.6,7.4,11.5,10.4c11.4,4.2,16.2,9.8,16.2,18.7s-9,18.6-22.9,18.6M454.3,137.5c-18.6,0-30.7-12.4-30.7-31.6s13.6-32.9,33.2-32.9,12.7,1.8,15.5,3.3h.1l-2.6,8.8h-.1c-3.7-2-8-3-12.9-3-14.9,0-21.6,11.7-21.6,23.2s8.5,22.8,21.2,22.8,10.4-1.5,13.6-2.9h.1c0,0,2,8.6,2,8.6h-.1c-3.6,1.8-10.1,3.6-17.7,3.7M515.7,104.7c-16,0-24.1,4.6-24.1,13.7s5.3,10.5,10.3,10.5c8.5,0,13.3-5.5,14.9-10.2.3-1,.5-2.2.5-3.5v-10.5h-1.6ZM499.1,137.5c-13,0-18.9-9.2-18.9-17.8,0-14.8,13-23,36.6-23h.4v-1.1c0-6.4-2.4-14.1-13.6-14.1h-.3c-5.9,0-11.8,1.6-16,4.5h-.1c0,0-2.7-7.7-2.7-7.7h.1c5.4-3.4,13-5.4,20.4-5.4,19.5,0,23.6,13.8,23.6,25.3v23c0,5.9.3,10.8.9,14.7v.2h-10.3l-1-7.7h-.2c-3,4.3-9.6,9.1-18.9,9.1M546.2,136.1h11.5V45.7h-11.5v90.4ZM614.9,99c0-2.3-.3-9.3-4.8-13.9-2.6-2.7-6.1-4-10.4-4-11,0-16,9.6-17,17.9h32.2ZM601.8,137.3c-18.4,0-30.3-12.2-30.3-31.1s11.9-33.4,29.1-33.4,25.4,15.7,25.4,29.1,0,4.1-.4,5.4h0c0,0-43,0-43,0,.3,13.2,8,21,20.8,21s13.3-1.5,17-3h0c0,0,2.1,8,2.1,8h0c-4.1,1.9-10.9,4-20.7,4"/>
</svg>