<?xml version="1.0" encoding="utf-8"?>
<!-- Generator: Adobe Illustrator 19.0.0, SVG Export Plug-In . SVG Version: 6.00 Build 0)  -->
<svg version="1.1" id="layer" xmlns="http://www.w3.org/2000/svg" xmlns:xlink="http://www.w3.org/1999/xlink" x="0px" y="0px"
	 viewBox="-153 -46 652 652" style="enable-background:new -153 -46 652 652;" xml:space="preserve">
<style type="text/css">
	.st0{fill:#479ABD;}
	.st1{fill:#1B1B1B;}
</style>
<path class="st0" d="M-87.3,320.4h17.9c2,0,3.7-1.7,3.7-3.8v-16.3c0-5.5,5.9-11.6,11.2-11.6h15.6c2.1,0,3.7-1.7,3.7-3.8v-18.5
	c0-2.1-1.7-3.8-3.7-3.8h-17.9c-2.1,0-3.7,1.7-3.7,3.8v16.3c0,5.5-5.9,11.6-11.2,11.6h-15.6c-2,0-3.7,1.7-3.7,3.8v18.6
	C-91,318.7-89.3,320.4-87.3,320.4"/>
<path class="st1" d="M-83.9,328.6c0.1,0.1,0.3,0.1,0.4,0.1L-83.9,328.6z M-84.5,255.1c-3.4,0-6.2-2.9-6.2-6.5c0-3.6,2.8-6.4,6.2-6.4
	h7.8c0.8-1.9,1.8-3.6,2.8-5.3c1.7-3,3.7-5.8,5.9-8.4c11.2-13.5,28.1-22.2,46.9-22.2h3.8c4.4,0,8.7,0.5,12.9,1.4
	c4.2,0.9,8.2,2.3,12,4c17.9,8.1,31.3,24.7,35.1,44.6h0.9v0c11.9,0,22.7,4.8,30.5,12.6c7.9,7.8,12.8,18.7,12.8,30.6h0v0h0
	c0,12-4.9,22.8-12.8,30.7c-7.8,7.8-18.6,12.6-30.5,12.6v0H-74.6v0c-4.3,0-8.4-0.6-12.3-1.8c-0.2-0.1-0.4-0.1-0.5-0.2l-1.4-0.4
	c-0.1-0.1-0.2-0.1-0.3-0.1c-3.1-1.1-6-2.5-8.7-4.3L-98,336l-0.3-0.2l0,0l-0.3-0.2c-0.1,0-0.2-0.1-0.3-0.2c-0.6-0.4-1.2-0.8-1.7-1.2
	c-2.8-2.1-3.4-6.1-1.3-9c2-2.9,5.9-3.5,8.7-1.4l1.2,0.9l0.2,0.1l0.3,0.2l0.3,0.2c1.9,1.2,4,2.3,6.2,3.1c0.1,0,0.2,0,0.3,0.1
	c0.4,0.1,0.7,0.2,0.9,0.3l0.4,0.1c2.9,0.9,5.9,1.3,8.9,1.3v0H43.6c8.5,0,16.3-3.4,21.9-9c5.6-5.5,9-13.1,9-21.4v0
	c0-8.3-3.4-15.8-9-21.4c-5.6-5.6-13.4-9-21.9-9h-6.3c-3.2,0-5.9-2.5-6.2-5.8c-1.7-17.8-13-32.8-28.6-39.9c-3-1.4-6.2-2.5-9.6-3.2
	c-3.4-0.7-6.8-1.1-10.4-1.1v0h-3.8c-15,0-28.5,6.9-37.4,17.6c-1.7,2.1-3.3,4.3-4.7,6.7c-1.4,2.4-2.6,4.9-3.6,7.4v0.1
	c-0.9,2.4-3.2,4-5.8,4L-84.5,255.1 M-118,320.4h17.9c2,0,3.7-1.7,3.7-3.8v-16.3c0-5.5,5.9-11.6,11.2-11.6h15.6c2,0,3.7-1.7,3.7-3.8
	v-18.9c0-2.1-1.7-3.8-3.7-3.8h-15.6c-5.3,0-11.2-6.2-11.2-11.7v-16.2c0-2.1-1.6-3.8-3.7-3.8H-118c-2,0-3.7,1.7-3.7,3.8v18.6
	c0,2.1,1.7,3.8,3.7,3.8h15.7c5.3,0,11.2,6.1,11.2,11.6v14.3c0,5.5-5.9,11.6-11.2,11.6H-118c-2,0-3.7,1.7-3.7,3.8v18.6
	C-121.7,318.7-120.1,320.4-118,320.4 M-111.5,283.7v-12.5c0-2.4-1.9-4.3-4.1-4.3h-12c-2.3,0-4.1,1.9-4.1,4.3v12.5
	c0,2.4,1.9,4.3,4.1,4.3h12C-113.3,288-111.5,286.1-111.5,283.7 M-16.8,304.1v-10.8c0-2.1-1.6-3.7-3.6-3.7h-10.5
	c-2,0-3.6,1.7-3.6,3.7v10.8c0,2,1.6,3.7,3.6,3.7h10.5C-18.4,307.8-16.8,306.1-16.8,304.1 M-28.7,252.7v-10c0-1.9-1.5-3.4-3.3-3.4
	h-9.6c-1.8,0-3.3,1.6-3.3,3.5v10c0,1.9,1.5,3.4,3.3,3.4h9.6C-30.2,256.2-28.7,254.7-28.7,252.7 M-7.2,281.5v-10.1
	c0-1.9-1.5-3.5-3.4-3.5h-9.8c-1.8,0-3.3,1.6-3.3,3.5v10.1c0,1.9,1.5,3.5,3.3,3.5h9.8C-8.7,285-7.2,283.4-7.2,281.5 M8.1,287.5v-6.6
	c0-1.3-1-2.3-2.2-2.3h-6.4c-1.2,0-2.2,1-2.2,2.3v6.6c0,1.2,1,2.3,2.2,2.3h6.4C7.1,289.8,8,288.7,8.1,287.5 M115.7,319.7l0.1-42.4
	c0-8-0.2-13.9-0.5-19.2V258h10.1l0.5,12h0.1c2.8-8.2,9.6-13.5,17.2-13.5c1.1,0,2,0.1,3.1,0.4l0.1,0v10.7l-0.4,0
	c-1.1-0.1-2.2-0.2-3.6-0.2c-7.4,0-13.3,5.5-14.8,14.1c-0.2,1.6-0.4,3.4-0.4,5.3v32.9H115.7 M195.5,282.6c0-2.3-0.3-9.3-4.8-13.9
	c-2.6-2.7-6.1-4-10.4-4c-11,0-16,9.6-17,17.9H195.5z M182.4,320.9c-18.4,0-30.3-12.2-30.3-31.1c0-19.7,11.9-33.4,29.1-33.4
	c18.7,0,25.4,15.7,25.4,29.1c0,2.3-0.1,4.1-0.4,5.4l0,0.1l-43-0.1c0.3,13.2,8.1,21,20.8,21c8.3,0,13.3-1.5,16.9-3l0.1-0.1l2.1,8.1
	L203,317C199,318.8,192.2,320.9,182.4,320.9 M233.3,321.1c-6.3,0-12.7-1.6-17.3-4.3l-0.1,0l2.8-8.7l0.1,0.1c3.4,2,9.2,4.3,14.8,4.3
	c7.3,0,11.6-3.4,11.6-9c0-5.1-3-8.1-11.2-11.1c-10.9-4-16.5-9.9-16.5-17.5c0-10.5,9-18.2,21.3-18.2c5.8,0,11.4,1.4,15.1,3.8l0.1,0
	l-2.8,8.3l-0.2-0.1c-4.1-2.3-8.3-3.5-12.5-3.5c-6.9,0-10,4.1-10,8.2c0,5.2,3.6,7.4,11.5,10.4c11.4,4.2,16.2,9.8,16.2,18.7
	C256.2,313.8,247.2,321.1,233.3,321.1 M296.6,321.1c-18.6,0-30.7-12.4-30.7-31.6c0-19.4,13.6-32.9,33.2-32.9c7,0,12.7,1.8,15.5,3.3
	l0.1,0l-2.6,8.8l-0.1-0.1c-3.7-1.9-8-2.9-12.9-2.9c-14.9,0-21.6,11.7-21.6,23.2c0,13.6,8.5,22.8,21.2,22.8c6.2,0,10.4-1.5,13.6-2.9
	l0.1-0.1l2,8.7l-0.1,0C310.7,319.2,304.2,321,296.6,321.1 M358,288.3c-16,0-24.1,4.6-24.1,13.7c0,7.8,5.3,10.5,10.3,10.5
	c8.5,0,13.3-5.5,14.9-10.2c0.3-1,0.5-2.2,0.5-3.5v-10.5L358,288.3L358,288.3z M341.4,321.1c-13,0-18.9-9.2-18.9-17.8
	c0-14.8,13-23,36.6-23h0.4v-1.1c0-6.4-2.4-14.1-13.6-14.1h-0.3c-5.9,0-11.8,1.6-16,4.5l-0.1,0.1l-2.7-7.8l0.1,0
	c5.4-3.4,13-5.4,20.4-5.4c19.5,0,23.6,13.8,23.6,25.3v23c0,5.9,0.3,10.8,0.9,14.7l0,0.2h-10.3l-1-7.7h-0.2
	C357.3,316.3,350.7,321.1,341.4,321.1 M388.5,319.7H400v-90.4h-11.5V319.7z M457.2,282.6c0-2.3-0.3-9.3-4.8-13.9
	c-2.6-2.7-6.1-4-10.4-4c-11,0-16,9.6-17,17.9H457.2z M444.1,320.9c-18.4,0-30.3-12.2-30.3-31.1c0-19.7,11.9-33.4,29.1-33.4
	c18.8,0,25.4,15.7,25.4,29.1c0,2.3-0.1,4.1-0.4,5.4v0.1l-43-0.1c0.3,13.2,8,21,20.8,21c8.4,0,13.3-1.5,17-3l0.1-0.1l2.1,8.1
	l-0.1,0.1C460.7,318.8,453.9,320.9,444.1,320.9"/>
</svg>
